<svg width="29" height="29" viewBox="0 0 29 29" fill="none" xmlns="http://www.w3.org/2000/svg">
<path d="M20.1772 23.7957C20.454 23.3806 20.819 23.0318 21.2462 22.7742C21.6734 22.5166 22.1522 22.3565 22.6484 22.3054C23.1447 22.2543 23.646 22.3134 24.1168 22.4785C24.5875 22.6437 25.016 22.9108 25.3715 23.2607C27.3724 20.7794 28.4632 17.6876 28.4624 14.5C28.4624 6.80155 22.1993 0.538452 14.5008 0.538452C6.80241 0.538452 0.539307 6.80155 0.539307 14.5C0.539307 22.1984 6.80241 28.4615 14.5008 28.4615C16.3004 28.4655 18.0836 28.1186 19.7505 27.4404C19.729 27.3849 19.7087 27.3294 19.6899 27.2727C19.498 26.7029 19.4396 26.0967 19.5194 25.5009C19.5992 24.905 19.8149 24.3355 20.15 23.8364L20.1772 23.7957ZM23.3633 9.84255C24.1487 9.84255 24.8457 10.1503 25.3271 10.7098C25.8097 11.2706 26.01 12.0082 25.8911 12.7868C25.7584 13.5473 25.366 14.2382 24.7808 14.7417C24.1957 15.2453 23.454 15.5303 22.6822 15.5481H22.6763C21.8909 15.5481 21.1939 15.2403 20.7125 14.6809C20.2299 14.1201 20.0296 13.3825 20.1485 12.6039C20.2812 11.8434 20.6736 11.1525 21.2587 10.6489C21.8439 10.1454 22.5856 9.8604 23.3574 9.84255H23.3633ZM16.2878 6.11014C16.6677 5.4364 17.2758 4.92052 18.0024 4.65552C18.7452 4.39374 19.5072 4.45347 20.148 4.82353C21.4373 5.56786 21.8034 7.35605 20.9642 8.80963C20.3737 9.83231 19.3415 10.4212 18.3324 10.4212C17.9014 10.4231 17.4776 10.3109 17.104 10.0959C15.8147 9.35167 15.4486 7.5638 16.2878 6.11014ZM7.63542 6.65749C7.78027 5.88334 8.21292 5.25341 8.85372 4.88327C9.49452 4.51313 10.2565 4.45363 10.9993 4.71533C11.7219 4.98706 12.3278 5.50103 12.7138 6.1696C13.0998 6.83817 13.2419 7.61994 13.116 8.38158C12.9711 9.15574 12.5385 9.78567 11.8977 10.1557C11.5232 10.3721 11.0982 10.4854 10.6658 10.4842C10.3543 10.4829 10.0454 10.4286 9.7521 10.3237C9.0295 10.052 8.42354 9.53805 8.03755 8.86948C7.65156 8.20091 7.50943 7.41914 7.63542 6.65749ZM4.22087 14.963C3.62946 14.4646 3.23559 13.7713 3.11029 13.0081C2.9913 12.2295 3.19168 11.4919 3.67423 10.9311C4.64535 9.8028 6.47034 9.77536 7.74267 10.8702C9.01499 11.9651 9.25995 13.7736 8.28891 14.9023C7.79375 15.4775 7.07656 15.7669 6.32383 15.7669C5.54933 15.7585 4.8034 15.4733 4.22087 14.9628V14.963ZM17.2543 22.7609C16.2345 22.765 15.2508 22.3832 14.5008 21.6922C13.7508 22.3833 12.7671 22.765 11.7472 22.7609C10.7672 22.7608 9.82007 22.4077 9.07916 21.7663C8.33825 21.1248 7.85319 20.2379 7.71281 19.2681C7.57244 18.2982 7.78613 17.3102 8.31477 16.485C8.84341 15.6598 9.65161 15.0526 10.5914 14.7747C10.8408 13.9313 11.3563 13.1912 12.0609 12.6648C12.7654 12.1384 13.6213 11.854 14.5008 11.854C15.3803 11.854 16.2363 12.1384 16.9408 12.6648C17.6454 13.1912 18.1609 13.9313 18.4103 14.7747C19.3501 15.0526 20.1583 15.6598 20.6869 16.485C21.2156 17.3102 21.4293 18.2982 21.2889 19.2681C21.1485 20.2379 20.6634 21.1248 19.9225 21.7663C19.1816 22.4077 18.2344 22.7608 17.2544 22.7609H17.2543Z" fill="#FF65C5"/>
</svg>
