<svg width="104" height="27" viewBox="0 0 104 27" fill="none" xmlns="http://www.w3.org/2000/svg">
<path d="M8.17202 5.04802V26H13.824V5.04802H21.528V0.296021H0.468018V5.04802H8.17202Z" fill="black"/>
<path d="M27.9478 4.50802V0.296021H22.8358V4.50802H27.9478ZM22.8358 7.38802V26H27.9478V7.38802H22.8358Z" fill="black"/>
<path d="M30.7131 7.38802V26H35.8251V16.244C35.8251 14.348 36.1371 12.992 36.7611 12.176C37.3851 11.336 38.3931 10.916 39.7851 10.916C41.0091 10.916 41.8611 11.3 42.3411 12.068C42.8211 12.812 43.0611 13.952 43.0611 15.488V26H48.1731V14.552C48.1731 13.4 48.0651 12.356 47.8491 11.42C47.6571 10.46 47.3091 9.65602 46.8051 9.00802C46.3011 8.33602 45.6051 7.82002 44.7171 7.46002C43.8531 7.07602 42.7371 6.88402 41.3691 6.88402C40.2891 6.88402 39.2331 7.13602 38.2011 7.64002C37.1691 8.12002 36.3291 8.90002 35.6811 9.98002H35.5731V7.38802H30.7131Z" fill="black"/>
<path d="M56.9849 12.392V4.68802H61.3769C62.0249 4.68802 62.6489 4.73602 63.2489 4.83202C63.8489 4.92802 64.3769 5.12002 64.8329 5.40802C65.2889 5.67202 65.6489 6.05602 65.9129 6.56002C66.2009 7.06402 66.3449 7.72402 66.3449 8.54002C66.3449 9.35602 66.2009 10.016 65.9129 10.52C65.6489 11.024 65.2889 11.42 64.8329 11.708C64.3769 11.972 63.8489 12.152 63.2489 12.248C62.6489 12.344 62.0249 12.392 61.3769 12.392H56.9849ZM51.3329 0.296021V26H56.9849V16.784H62.9249C64.5329 16.784 65.9009 16.556 67.0289 16.1C68.1569 15.62 69.0689 14.996 69.7649 14.228C70.4849 13.46 71.0009 12.584 71.3129 11.6C71.6489 10.592 71.8169 9.57202 71.8169 8.54002C71.8169 7.48402 71.6489 6.46402 71.3129 5.48002C71.0009 4.49602 70.4849 3.62002 69.7649 2.85202C69.0689 2.08402 68.1569 1.47202 67.0289 1.01602C65.9009 0.536021 64.5329 0.296021 62.9249 0.296021H51.3329Z" fill="black"/>
<path d="M86.0726 14.696H77.7566C77.7806 14.336 77.8526 13.928 77.9726 13.472C78.1166 13.016 78.3446 12.584 78.6566 12.176C78.9926 11.768 79.4246 11.432 79.9526 11.168C80.5046 10.88 81.1886 10.736 82.0046 10.736C83.2526 10.736 84.1766 11.072 84.7766 11.744C85.4006 12.416 85.8326 13.4 86.0726 14.696ZM77.7566 17.936H91.1846C91.2806 16.496 91.1606 15.116 90.8246 13.796C90.4886 12.476 89.9366 11.3 89.1686 10.268C88.4246 9.23602 87.4646 8.42002 86.2886 7.82002C85.1126 7.19602 83.7326 6.88402 82.1486 6.88402C80.7326 6.88402 79.4366 7.13602 78.2606 7.64002C77.1086 8.14402 76.1126 8.84002 75.2726 9.72802C74.4326 10.592 73.7846 11.624 73.3286 12.824C72.8726 14.024 72.6446 15.32 72.6446 16.712C72.6446 18.152 72.8606 19.472 73.2926 20.672C73.7486 21.872 74.3846 22.904 75.2006 23.768C76.0166 24.632 77.0126 25.304 78.1886 25.784C79.3646 26.24 80.6846 26.468 82.1486 26.468C84.2606 26.468 86.0606 25.988 87.5486 25.028C89.0366 24.068 90.1406 22.472 90.8606 20.24H86.3606C86.1926 20.816 85.7366 21.368 84.9926 21.896C84.2486 22.4 83.3606 22.652 82.3286 22.652C80.8886 22.652 79.7846 22.28 79.0166 21.536C78.2486 20.792 77.8286 19.592 77.7566 17.936Z" fill="black"/>
<path d="M99.4365 7.38802V1.80802H94.3245V7.38802H91.2285V10.808H94.3245V21.788C94.3245 22.724 94.4805 23.48 94.7925 24.056C95.1045 24.632 95.5245 25.076 96.0525 25.388C96.6045 25.7 97.2285 25.904 97.9245 26C98.6445 26.12 99.4005 26.18 100.193 26.18C100.697 26.18 101.213 26.168 101.741 26.144C102.269 26.12 102.749 26.072 103.181 26V22.04C102.941 22.088 102.689 22.124 102.425 22.148C102.161 22.172 101.885 22.184 101.597 22.184C100.733 22.184 100.157 22.04 99.8685 21.752C99.5805 21.464 99.4365 20.888 99.4365 20.024V10.808H103.181V7.38802H99.4365Z" fill="black"/>
</svg>
